<svg width="32" height="31" viewBox="0 0 32 31" fill="none" xmlns="http://www.w3.org/2000/svg">
<path fill-rule="evenodd" clip-rule="evenodd" d="M10.2267 28.229C21.6177 28.229 27.8167 18.848 27.8167 10.639V9.80196C28.9871 8.91077 30.0053 7.83584 30.8317 6.61896C29.7084 7.10743 28.5255 7.44536 27.3137 7.62396C28.5595 6.8417 29.504 5.66105 29.9937 4.27396C28.7832 4.94768 27.4871 5.45461 26.1407 5.78096C25.5739 5.14263 24.877 4.63301 24.0968 4.28632C23.3167 3.93963 22.4714 3.76391 21.6177 3.77096C19.981 3.79522 18.418 4.45623 17.2605 5.61373C16.103 6.77124 15.442 8.33417 15.4177 9.97096C15.3798 10.4244 15.437 10.8809 15.5857 11.311C13.1208 11.1915 10.7098 10.5466 8.51431 9.41956C6.31883 8.29251 4.38956 6.70928 2.85574 4.77596C2.30433 5.74602 2.01549 6.84313 2.01773 7.95896C2.03997 8.97139 2.29293 9.9654 2.75735 10.8653C3.22177 11.7652 3.88541 12.5473 4.69773 13.152C3.69065 13.1316 2.70734 12.8423 1.84974 12.314C1.84797 13.7492 2.35048 15.1393 3.26951 16.2417C4.18853 17.3441 5.46564 18.0885 6.87774 18.345C6.33235 18.4922 5.7665 18.549 5.20274 18.513C4.80429 18.5397 4.40465 18.4825 4.02974 18.345C4.43927 19.5865 5.22228 20.6713 6.27172 21.451C7.32115 22.2307 8.58579 22.6672 9.89273 22.701C7.69063 24.421 4.98092 25.3634 2.18673 25.381C1.67797 25.4086 1.16815 25.3521 0.677734 25.214C3.45004 27.2269 6.80116 28.285 10.2267 28.229Z" fill="white"/>
</svg>
